#N canvas 314 131 960 518 10;
#X obj 332 242 bng 15 250 50 0 empty empty reset 17 7 0 10 -258113
-1 -1;
#X obj 120 380 bng 15 250 50 0 empty empty empty 17 7 0 10 -262144
-1 -1;
#X obj 216 380 bng 15 250 50 0 empty empty empty 17 7 0 10 -262144
-1 -1;
#X obj 313 380 bng 15 250 50 0 empty empty empty 17 7 0 10 -262144
-1 -1;
#X obj 75 191 tgl 15 0 empty empty empty 17 7 0 10 -4034 -1 -1 0 1
;
#X msg 220 218 21;
#X msg 253 218 22;
#X msg 285 218 31;
#X msg 318 218 32;
#X text 73 483 Abstraction by Alex Simesky. Pure Data 0.48.1;
#N canvas 0 60 1286 654 (subpatch) 0;
#X array markov3_array 100 float 2;
#X coords 0 3.1 100 0.9 400 140 1 0 0;
#X restore 500 18 graph;
#X obj 332 442 tabwrite markov3_array;
#X msg 141 380 1;
#X msg 235 380 2;
#X msg 332 380 3;
#X obj 120 258 markov3;
#X text 324 269 or enter them directly for quick experimentation (attention
- not saved with your patch in this case!);
#X obj 471 25 vsl 15 128 1 3 0 0 empty empty empty 0 -9 0 10 -262144
-1 -1 12700 1;
#X obj 461 418 cyclone/counter 0 99;
#X obj 141 437 s state;
#X obj 440 2 r state;
#X msg 147 218 11;
#X msg 184 218 12;
#X obj 220 192 loadbang;
#X obj 75 218 metro 100;
#X text 61 8 Based on the Markov Chain help file \, the goal of this
abstraction is to simplify the configuration of a Markov chain by visually
representing the transition matrix. You can input the probabilities
directly in the abstraction (always in sequence within a row) for quick
experimentations. Note that only the first 2 probabilities of a row
are necessary \, as the third one is given automatically (remember
that the sum of a row has to be 1 or 100%). Attention: if you want
to save the configuration with your patch \, use the dedicated inlets!
;
#X text 452 136 1;
#X text 452 81 2;
#X text 454 23 3;
#X text 116 172 enter your probabilities in the messages bellow:;
#X connect 0 0 15 7;
#X connect 0 0 18 2;
#X connect 1 0 18 0;
#X connect 2 0 18 0;
#X connect 3 0 18 0;
#X connect 4 0 24 0;
#X connect 5 0 15 3;
#X connect 6 0 15 4;
#X connect 7 0 15 5;
#X connect 8 0 15 6;
#X connect 12 0 11 0;
#X connect 12 0 19 0;
#X connect 13 0 11 0;
#X connect 13 0 19 0;
#X connect 14 0 11 0;
#X connect 14 0 19 0;
#X connect 15 0 1 0;
#X connect 15 0 12 0;
#X connect 15 1 2 0;
#X connect 15 1 13 0;
#X connect 15 2 3 0;
#X connect 15 2 14 0;
#X connect 18 0 11 1;
#X connect 20 0 17 0;
#X connect 21 0 15 1;
#X connect 22 0 15 2;
#X connect 23 0 21 0;
#X connect 23 0 22 0;
#X connect 23 0 5 0;
#X connect 23 0 6 0;
#X connect 23 0 7 0;
#X connect 23 0 8 0;
#X connect 24 0 15 0;
