#N canvas 319 79 706 603 10;
#X msg 105 483 1;
#X msg 184 483 2;
#X msg 229 483 3;
#X obj 105 125 bng 20 250 50 0 empty empty step 0 -4 0 8 -262144 -1
-1;
#X obj 105 370 sel 1 2 3;
#X msg 277 483 1;
#X msg 356 483 2;
#X msg 401 483 3;
#X msg 441 483 1;
#X msg 521 483 2;
#X msg 566 483 3;
#X msg 639 68 \; state 1;
#X obj 105 333 f 1;
#X obj 105 424 random 100;
#X obj 277 425 random 100;
#X obj 441 426 random 100;
#X floatatom 105 161 3 0 0 2 state - -, f 3;
#X text 636 50 reset;
#X text 65 109 STEP;
#X obj 26 19 inlet;
#X obj 639 15 inlet;
#X obj 105 453 moses 33;
#X obj 277 453 moses 33;
#X obj 356 453 moses 66;
#X obj 441 453 moses 33;
#X obj 521 453 moses 66;
#X obj 184 453 moses 66;
#X obj 105 565 outlet;
#X obj 276 566 outlet;
#X obj 440 568 outlet;
#X obj 154 260 +;
#X floatatom 198 118 5 0 100 2 1->2 - -, f 5;
#X floatatom 161 118 5 0 100 2 1->1 - -, f 5;
#X floatatom 236 118 5 0 0 2 1->3 - -, f 5;
#X obj 192 284 -;
#X msg 192 260 100;
#X floatatom 198 152 5 0 100 2 2->2 - -, f 5;
#X floatatom 161 152 5 0 100 2 2->1 - -, f 5;
#X floatatom 236 152 5 0 0 2 2->3 - -, f 5;
#X obj 272 260 +;
#X obj 310 284 -;
#X msg 310 260 100;
#X floatatom 199 185 5 0 100 2 3->2 - -, f 5;
#X floatatom 161 185 5 0 100 2 3->1 - -, f 5;
#X floatatom 237 185 5 0 0 2 3->3 - -, f 5;
#X obj 363 260 +;
#X obj 400 284 -;
#X msg 400 260 100;
#X text 271 116 %;
#X text 271 151 %;
#X text 270 183 %;
#X obj 85 19 inlet;
#X obj 151 19 inlet;
#X obj 268 19 inlet;
#X obj 335 19 inlet;
#X obj 448 19 inlet;
#X obj 517 19 inlet;
#X obj 85 66 clip 0 100;
#X obj 151 66 clip 0 100;
#X obj 208 45 -;
#X msg 208 23 100;
#X obj 268 66 clip 0 100;
#X obj 335 66 clip 0 100;
#X obj 392 45 -;
#X msg 392 23 100;
#X obj 448 66 clip 0 100;
#X obj 517 66 clip 0 100;
#X obj 574 45 -;
#X msg 574 23 100;
#X obj 127 231 bang;
#X obj 236 231 bang;
#X obj 354 231 bang;
#X connect 0 0 12 1;
#X connect 1 0 12 1;
#X connect 2 0 12 1;
#X connect 3 0 12 0;
#X connect 4 0 27 0;
#X connect 4 0 13 0;
#X connect 4 1 28 0;
#X connect 4 1 14 0;
#X connect 4 2 29 0;
#X connect 4 2 15 0;
#X connect 5 0 12 1;
#X connect 6 0 12 1;
#X connect 7 0 12 1;
#X connect 8 0 12 1;
#X connect 9 0 12 1;
#X connect 10 0 12 1;
#X connect 12 0 4 0;
#X connect 12 0 16 0;
#X connect 13 0 21 0;
#X connect 14 0 22 0;
#X connect 15 0 24 0;
#X connect 19 0 3 0;
#X connect 20 0 11 0;
#X connect 21 0 0 0;
#X connect 21 1 26 0;
#X connect 22 0 5 0;
#X connect 22 1 23 0;
#X connect 23 0 6 0;
#X connect 23 1 7 0;
#X connect 24 0 8 0;
#X connect 24 1 25 0;
#X connect 25 0 9 0;
#X connect 25 1 10 0;
#X connect 26 0 1 0;
#X connect 26 1 2 0;
#X connect 30 0 26 1;
#X connect 30 0 34 1;
#X connect 30 0 35 0;
#X connect 31 0 30 0;
#X connect 32 0 21 1;
#X connect 32 0 30 1;
#X connect 32 0 69 0;
#X connect 34 0 33 0;
#X connect 35 0 34 0;
#X connect 36 0 39 0;
#X connect 37 0 22 1;
#X connect 37 0 39 1;
#X connect 37 0 70 0;
#X connect 39 0 40 1;
#X connect 39 0 41 0;
#X connect 39 0 23 1;
#X connect 40 0 38 0;
#X connect 41 0 40 0;
#X connect 42 0 45 0;
#X connect 43 0 45 1;
#X connect 43 0 24 1;
#X connect 43 0 71 0;
#X connect 45 0 46 1;
#X connect 45 0 47 0;
#X connect 45 0 25 1;
#X connect 46 0 44 0;
#X connect 47 0 46 0;
#X connect 51 0 57 0;
#X connect 52 0 58 0;
#X connect 52 0 60 0;
#X connect 53 0 61 0;
#X connect 53 0 64 0;
#X connect 54 0 62 0;
#X connect 54 0 64 0;
#X connect 55 0 65 0;
#X connect 55 0 68 0;
#X connect 56 0 66 0;
#X connect 56 0 68 0;
#X connect 57 0 32 0;
#X connect 57 0 59 1;
#X connect 58 0 31 0;
#X connect 59 0 58 2;
#X connect 60 0 59 0;
#X connect 61 0 63 1;
#X connect 61 0 37 0;
#X connect 62 0 36 0;
#X connect 63 0 62 2;
#X connect 64 0 63 0;
#X connect 65 0 43 0;
#X connect 65 0 67 1;
#X connect 66 0 42 0;
#X connect 67 0 66 2;
#X connect 68 0 67 0;
#X connect 69 0 30 0;
#X connect 70 0 39 0;
#X connect 71 0 45 0;
#X coords 0 -1 1 1 200 110 1 100 100;
