#N canvas 0 60 1366 668 10;
#X msg 105 484 1;
#X msg 184 484 2;
#X obj 105 514 s state;
#X obj 105 125 bng 20 250 50 0 empty empty step 0 -4 0 8 -262144 -1
-1;
#X obj 120 320 r state;
#X msg 1178 45 \; state 1;
#X obj 105 344 f 1;
#X obj 105 424 random 100;
#X floatatom 105 161 3 0 0 2 state - -, f 3;
#X text 1175 4 reset;
#X text 65 109 STEP;
#X obj 26 19 inlet;
#X obj 1178 22 inlet;
#X obj 105 565 outlet;
#X obj 276 566 outlet;
#X obj 440 568 outlet;
#X floatatom 198 118 5 0 100 2 1->2 - -, f 5;
#X floatatom 161 118 5 0 100 2 1->1 - -, f 5;
#X floatatom 281 119 5 0 0 2 1->4 - -, f 5;
#X obj 275 276 -;
#X msg 275 253 100;
#X floatatom 198 152 5 0 100 2 2->2 - -, f 5;
#X floatatom 161 152 5 0 100 2 2->1 - -, f 5;
#X floatatom 281 153 5 0 0 2 2->4 - -, f 5;
#X floatatom 199 185 5 0 100 2 3->2 - -, f 5;
#X floatatom 161 185 5 0 100 2 3->1 - -, f 5;
#X floatatom 282 186 5 0 0 2 3->4 - -, f 5;
#X text 316 118 %;
#X text 316 152 %;
#X text 316 186 %;
#X obj 85 19 inlet;
#X obj 156 19 inlet;
#X obj 377 19 inlet;
#X obj 447 19 inlet;
#X obj 668 19 inlet;
#X obj 737 19 inlet;
#X obj 85 67 clip 0 100;
#X obj 156 67 clip 0 100;
#X obj 213 44 -;
#X msg 213 19 100;
#X obj 377 67 clip 0 100;
#X obj 447 67 clip 0 100;
#X obj 504 44 -;
#X msg 504 19 100;
#X obj 668 67 clip 0 100;
#X obj 737 67 clip 0 100;
#X obj 794 44 -;
#X msg 794 19 100;
#X floatatom 238 119 5 0 100 2 1->3 - -, f 5;
#X floatatom 238 153 5 0 100 2 2->3 - -, f 5;
#X floatatom 239 186 5 0 100 2 3->3 - -, f 5;
#X floatatom 199 218 5 0 100 2 4->2 - -, f 5;
#X floatatom 161 218 5 0 100 2 4->1 - -, f 5;
#X floatatom 282 219 5 0 0 2 4->4 - -, f 5;
#X floatatom 239 219 5 0 100 2 4->3 - -, f 5;
#X text 316 220 %;
#X obj 105 370 sel 1 2 3 4;
#X obj 546 568 outlet;
#X obj 105 454 moses 25;
#X obj 184 454 moses 50;
#X msg 257 484 3;
#X msg 291 484 4;
#X obj 257 455 moses 75;
#X msg 336 484 1;
#X msg 415 484 2;
#X obj 336 514 s state;
#X obj 336 424 random 100;
#X obj 336 454 moses 25;
#X obj 415 454 moses 50;
#X msg 488 484 3;
#X msg 522 484 4;
#X obj 488 454 moses 75;
#X msg 579 484 1;
#X msg 658 484 2;
#X obj 579 514 s state;
#X obj 579 424 random 100;
#X obj 579 454 moses 25;
#X obj 658 454 moses 50;
#X msg 731 484 3;
#X msg 765 484 4;
#X obj 731 454 moses 75;
#X msg 816 484 1;
#X msg 895 484 2;
#X obj 816 514 s state;
#X obj 816 424 random 100;
#X obj 816 454 moses 25;
#X obj 895 454 moses 50;
#X msg 968 484 3;
#X msg 1002 484 4;
#X obj 968 454 moses 75;
#X obj 249 19 inlet;
#X obj 249 67 clip 0 100;
#X obj 306 44 -;
#X msg 306 19 100;
#X obj 161 276 +;
#X obj 135 253 bang;
#X obj 532 19 inlet;
#X obj 532 67 clip 0 100;
#X obj 589 44 -;
#X msg 589 19 100;
#X obj 208 276 +;
#X obj 208 253 bang;
#X obj 342 338 -;
#X msg 342 315 100;
#X obj 228 338 +;
#X obj 202 315 bang;
#X obj 275 338 +;
#X obj 275 315 bang;
#X obj 824 19 inlet;
#X obj 824 67 clip 0 100;
#X obj 881 44 -;
#X msg 881 19 100;
#X obj 541 275 -;
#X msg 541 252 100;
#X obj 427 275 +;
#X obj 401 252 bang;
#X obj 474 275 +;
#X obj 474 252 bang;
#X obj 573 342 -;
#X msg 573 319 100;
#X obj 459 342 +;
#X obj 433 319 bang;
#X obj 506 342 +;
#X obj 506 319 bang;
#X obj 925 19 inlet;
#X obj 994 19 inlet;
#X obj 925 67 clip 0 100;
#X obj 994 67 clip 0 100;
#X obj 1051 44 -;
#X msg 1051 19 100;
#X obj 1081 19 inlet;
#X obj 1081 67 clip 0 100;
#X obj 1138 44 -;
#X msg 1138 19 100;
#X connect 0 0 2 0;
#X connect 1 0 2 0;
#X connect 3 0 6 0;
#X connect 4 0 6 1;
#X connect 4 0 8 0;
#X connect 6 0 56 0;
#X connect 7 0 58 0;
#X connect 11 0 3 0;
#X connect 12 0 5 0;
#X connect 16 0 94 1;
#X connect 16 0 95 0;
#X connect 17 0 58 1;
#X connect 17 0 94 0;
#X connect 19 0 18 0;
#X connect 20 0 19 0;
#X connect 21 0 104 1;
#X connect 21 0 105 0;
#X connect 22 0 67 1;
#X connect 22 0 104 0;
#X connect 24 0 114 1;
#X connect 24 0 115 0;
#X connect 25 0 76 1;
#X connect 25 0 114 0;
#X connect 30 0 36 0;
#X connect 31 0 37 0;
#X connect 31 0 39 0;
#X connect 32 0 40 0;
#X connect 33 0 41 0;
#X connect 33 0 43 0;
#X connect 34 0 44 0;
#X connect 35 0 45 0;
#X connect 35 0 47 0;
#X connect 36 0 17 0;
#X connect 36 0 38 1;
#X connect 37 0 16 0;
#X connect 38 0 37 2;
#X connect 39 0 38 0;
#X connect 40 0 42 1;
#X connect 40 0 22 0;
#X connect 41 0 21 0;
#X connect 42 0 41 2;
#X connect 43 0 42 0;
#X connect 44 0 25 0;
#X connect 44 0 46 1;
#X connect 45 0 24 0;
#X connect 46 0 45 2;
#X connect 47 0 46 0;
#X connect 48 0 100 0;
#X connect 49 0 106 0;
#X connect 50 0 116 0;
#X connect 51 0 120 1;
#X connect 51 0 121 0;
#X connect 52 0 120 0;
#X connect 52 0 85 1;
#X connect 54 0 122 0;
#X connect 56 0 13 0;
#X connect 56 0 7 0;
#X connect 56 1 14 0;
#X connect 56 1 66 0;
#X connect 56 2 15 0;
#X connect 56 2 75 0;
#X connect 56 3 57 0;
#X connect 56 3 84 0;
#X connect 58 0 0 0;
#X connect 58 1 59 0;
#X connect 59 0 1 0;
#X connect 59 1 62 0;
#X connect 60 0 2 0;
#X connect 61 0 2 0;
#X connect 62 0 60 0;
#X connect 62 1 61 0;
#X connect 63 0 65 0;
#X connect 64 0 65 0;
#X connect 66 0 67 0;
#X connect 67 0 63 0;
#X connect 67 1 68 0;
#X connect 68 0 64 0;
#X connect 68 1 71 0;
#X connect 69 0 65 0;
#X connect 70 0 65 0;
#X connect 71 0 69 0;
#X connect 71 1 70 0;
#X connect 72 0 74 0;
#X connect 73 0 74 0;
#X connect 75 0 76 0;
#X connect 76 0 72 0;
#X connect 76 1 77 0;
#X connect 77 0 73 0;
#X connect 77 1 80 0;
#X connect 78 0 74 0;
#X connect 79 0 74 0;
#X connect 80 0 78 0;
#X connect 80 1 79 0;
#X connect 81 0 83 0;
#X connect 82 0 83 0;
#X connect 84 0 85 0;
#X connect 85 0 81 0;
#X connect 85 1 86 0;
#X connect 86 0 82 0;
#X connect 86 1 89 0;
#X connect 87 0 83 0;
#X connect 88 0 83 0;
#X connect 89 0 87 0;
#X connect 89 1 88 0;
#X connect 90 0 91 0;
#X connect 90 0 93 0;
#X connect 91 0 48 0;
#X connect 92 0 91 2;
#X connect 93 0 92 0;
#X connect 94 0 59 1;
#X connect 94 0 92 1;
#X connect 94 0 100 1;
#X connect 94 0 101 0;
#X connect 95 0 94 0;
#X connect 96 0 97 0;
#X connect 96 0 99 0;
#X connect 97 0 49 0;
#X connect 98 0 97 2;
#X connect 99 0 98 0;
#X connect 100 0 62 1;
#X connect 100 0 19 1;
#X connect 100 0 20 0;
#X connect 101 0 100 0;
#X connect 102 0 23 0;
#X connect 103 0 102 0;
#X connect 104 0 106 1;
#X connect 104 0 107 0;
#X connect 104 0 68 1;
#X connect 104 0 98 1;
#X connect 105 0 104 0;
#X connect 106 0 102 1;
#X connect 106 0 103 0;
#X connect 106 0 71 1;
#X connect 107 0 106 0;
#X connect 108 0 109 0;
#X connect 108 0 111 0;
#X connect 109 0 50 0;
#X connect 110 0 109 2;
#X connect 111 0 110 0;
#X connect 112 0 26 0;
#X connect 113 0 112 0;
#X connect 114 0 116 1;
#X connect 114 0 117 0;
#X connect 114 0 110 1;
#X connect 114 0 77 1;
#X connect 115 0 114 0;
#X connect 116 0 112 1;
#X connect 116 0 113 0;
#X connect 116 0 80 1;
#X connect 117 0 116 0;
#X connect 118 0 53 0;
#X connect 119 0 118 0;
#X connect 120 0 122 1;
#X connect 120 0 123 0;
#X connect 120 0 132 1;
#X connect 120 0 86 1;
#X connect 121 0 120 0;
#X connect 122 0 118 1;
#X connect 122 0 119 0;
#X connect 122 0 89 1;
#X connect 123 0 122 0;
#X connect 124 0 126 0;
#X connect 125 0 127 0;
#X connect 125 0 129 0;
#X connect 126 0 128 1;
#X connect 126 0 52 0;
#X connect 127 0 51 0;
#X connect 128 0 127 2;
#X connect 129 0 128 0;
#X connect 130 0 131 0;
#X connect 130 0 133 0;
#X connect 131 0 54 0;
#X connect 132 0 131 2;
#X connect 133 0 132 0;
#X coords 0 -1 1 1 230 140 1 100 100;
